# xmcd
#
# Track frame offsets:
#	150
#	7229
#	24233
#	45207
#	64546
#	79243
#	98637
#	135486
#
# Disc length: 1994 seconds
#
# Revision: 0
# Processed by: cddbd v1.4PL0 Copyright (c) Steve Scherf et al.
# Submitted via: EasyCDDAExtractor 5.0.2.1
#
DISCID=5407c808
DTITLE=Arautos do Rei - Celebração
DYEAR=1900
DGENRE=
TTITLE0=Breve Jesus voltará
TTITLE1=Quando eu chegar
TTITLE2=Jesus em nós
TTITLE3=Tú és fiel, Senhor
TTITLE4=A Deus seja glória
TTITLE5=Vem, entrega a tua vida
TTITLE6=Celebraçao
TTITLE7=O outro Consolador
EXTD=
EXTT0=
EXTT1=
EXTT2=
EXTT3=
EXTT4=
EXTT5=
EXTT6=
EXTT7=
PLAYORDER=
